<?xml version="1.0" encoding="UTF-8"?>
<svg id="Layer_2" data-name="Layer 2" xmlns="http://www.w3.org/2000/svg" viewBox="0 0 24 24">
  <defs>
    <style>
      .cls-1 {
        fill: #ef4b26;
      }

      .cls-1, .cls-2 {
        stroke-width: 0px;
      }

      .cls-2 {
        fill: #fff;
      }
    </style>
  </defs>
  <g id="Layer_1-2" data-name="Layer 1">
    <circle class="cls-1" cx="12" cy="12" r="12"/>
    <path class="cls-2" d="M18.68,7.81c-.21-1.26-.54-2.49-.96-3.69-.09-.27-.2-.54-.31-.82-1.09.47-2.16.93-3.24,1.4.01.03.01.05.02.07.46,1.18.81,2.39,1.02,3.64.24,1.39.3,2.77.05,4.17-.32,1.83-1.93,3.04-3.71,2.84-1.85-.21-3.13-1.84-2.95-3.69.16-1.58,1.46-2.88,3.05-2.98,1.23-.08,2.2.36,2.92,1.28-.08-1.45-.38-2.94-.97-4.43-.03-.07-.05-.12-.07-.18-1.43-.34-2.83-.26-4.21.31-3.49,1.44-5.16,5.34-3.81,8.87,1.41,3.68,5.77,5.43,9.33,3.72,2.23-1.07,3.52-2.86,3.91-5.3.28-1.74.2-3.47-.08-5.2Z"/>
  </g>
</svg>